 <svg version="1.1" id="Layer_1" xmlns="http://www.w3.org/2000/svg" xmlns:xlink="http://www.w3.org/1999/xlink" x="0px" y="0px"
	 width="864px" height="864px" viewBox="0 0 864 864" enable-background="new 0 0 864 864" xml:space="preserve">


          <g>
            <path d="M812.7538,249.8228c0,0-21.3554-19.3469-20.3379-65.3227c1.017-45.9759,38.1287-71.5471-6.1859-119.3175
              c-44.3148-47.7702-124.028-29.4058-150.3069-20.8455C609.6442,52.8975,485.4203,74.6245,431.9999,18
              C378.5798,74.6245,254.356,52.8975,228.077,44.3372S122.0849,17.4124,77.7702,65.1827
              c-44.3146,47.7704-7.2031,73.3415-6.1859,119.3175c1.0173,45.9758-20.3381,65.3227-20.3381,65.3227
              s21.3554,19.3469,20.3381,65.3227c-1.0173,45.9759-38.1288,71.547,6.1859,119.3174
              c44.3146,47.7703,124.0278,29.4058,150.3068,20.8455c26.279-8.5603,150.5028-30.2872,203.9229,26.3373
              c53.4204-56.6245,177.6442-34.8976,203.9232-26.3373c26.2789,8.5604,105.9921,26.9249,150.3069-20.8455
              c44.3145-47.7704,7.2029-73.3416,6.1859-119.3174C791.3984,269.1697,812.7538,249.8228,812.7538,249.8228z M780.777,315.4034
              c0.3693,16.659,4.9368,30.748,8.9673,43.1786c7.9538,24.5312,13.2075,40.737-12.0496,67.9635
              c-17.1316,18.4686-42.4686,27.8328-75.3068,27.8333c-29.4453,0-55.5571-7.7606-62.858-10.139
              c-14.6602-4.7753-50.9752-11.8795-90.9393-11.8795c-36.0076,0-84.0331,6.0201-116.5902,33.3201
              c-32.5571-27.2996-80.5835-33.3201-116.591-33.3201c-39.9633,0-76.2783,7.1042-90.9373,11.879
              c-7.3009,2.3784-33.4096,10.1379-62.8603,10.1395c-32.836,0.0016-58.1728-9.3627-75.3068-27.8333
              C61.0483,399.319,66.302,383.1131,74.2557,358.582c4.0305-12.4306,8.5979-26.5196,8.9674-43.1791
              c0.742-33.5528-9.6242-54.784-17.0233-65.5798c7.3991-10.7958,17.7654-32.0276,17.0233-65.5808
              c-0.3696-16.6591-4.9369-30.7481-8.9674-43.1787c-7.9536-24.5312-13.2074-40.737,12.0494-67.9634
              c17.1328-18.4686,42.4698-27.8333,75.3079-27.8333c29.4452,0,55.5571,7.7606,62.8591,10.1396
              c14.6559,4.7743,50.9689,11.8779,90.9362,11.879c0.0032,0,0.0083,0,0.0107,0c36.0064,0,84.0255-6.0206,116.5815-33.3201
              c32.5571,27.3001,80.5835,33.3201,116.5911,33.3201c39.9644,0,76.2794-7.1042,90.9373-11.879
              c7.3021-2.3789,33.4128-10.1396,62.8591-10.1396c32.8381,0,58.1752,9.3643,75.3068,27.8329
              c25.2571,27.2269,20.0034,43.4327,12.0496,67.9639c-4.0305,12.4307-8.598,26.5197-8.9673,43.1792
              c-0.742,33.5527,9.6242,54.7845,17.0232,65.5803C790.4012,260.6189,780.035,281.85,780.777,315.4034z"/>
            <path d="M773.4494,184.0806c0.394-17.739,5.3443-33.0085,9.3234-45.2786c7.6601-23.6287,11.8802-36.644-10.4517-60.7177
              c-15.6884-16.9122-39.217-25.4875-69.9331-25.4875c-28.3716,0-53.5484,7.4848-60.5896,9.7791
              c-15.1034,4.9194-52.3888,12.2388-93.2068,12.2388c-33.101,0-79.7655-5.1137-114.0963-29.4754l-2.4947-1.7705l-2.4958,1.7705
              c-34.3285,24.3618-80.9939,29.4754-114.0963,29.4754c-40.8201-0.0009-78.1046-7.3199-93.2068-12.2388
              c-7.04-2.2942-32.2137-9.7791-60.5885-9.7791c-30.716,0-54.2456,8.5757-69.9341,25.4885
              C69.3461,102.158,73.5661,115.174,81.2283,138.803c3.9779,12.269,8.9285,27.5385,9.3234,45.2771
              c0.6747,30.5254-7.4486,51.4392-14.3812,63.6087l-1.2157,2.1343l1.2157,2.1342c6.9326,12.1695,15.0559,33.0834,14.3801,63.6077
              c-0.3937,17.739-5.3443,33.0086-9.3222,45.2781c-7.6621,23.6285-11.8822,36.6444,10.4506,60.7177
              c15.6895,16.9142,39.2181,25.4896,69.9318,25.4885c28.375-0.0016,53.5507-7.4858,60.5908-9.7795
              c15.1066-4.9195,52.394-12.239,93.208-12.239c33.1013,0,79.7646,5.1137,114.0963,29.4754l2.4947,1.7705l2.4947-1.7705
              c34.3308-24.3617,80.9942-29.4754,114.0955-29.4754c40.816,0,78.1043,7.3195,93.2097,12.2396
              c7.0412,2.2942,32.2203,9.779,60.5876,9.779c30.7161-0.0005,54.2447-8.5764,69.9331-25.4891
              c22.3327-24.0727,18.1126-37.0886,10.4505-60.7176c-3.9779-12.269-8.9282-27.5386-9.3231-45.2771
              c-0.6747-30.5254,7.4485-51.4387,14.3812-63.6082l1.2158-2.1342l-1.2158-2.1343
              C780.897,235.5193,772.7738,214.6055,773.4494,184.0806z M779.1558,249.823c-7.1801,13.3569-15.0093,35.1359-14.3282,65.9335
              c0.4219,19.0037,5.5894,34.9402,9.7421,47.746c7.5106,23.1632,10.3199,31.8301-8.5707,52.1934
              c-13.9895,15.0822-35.3918,22.7296-63.6109,22.7302c-27.0969,0-51.1803-7.1606-57.916-9.3548
              c-15.6295-5.0906-54.0612-12.6638-95.8813-12.6638c-33.5707,0-80.6951,5.1474-116.5902,29.3401
              c-35.8959-24.1928-83.0204-29.3401-116.591-29.3401c-41.8181,0-80.249,7.5727-95.8784,12.6632
              c-6.7349,2.1942-30.8168,9.3538-57.9203,9.3554c-28.2168,0.001-49.618-7.6464-63.6098-22.7296
              c-18.8906-20.3638-16.081-29.0307-8.5704-52.1939c4.1525-12.8058,9.3199-28.7423,9.741-47.7466
              c0.6822-30.7964-7.1463-52.5755-14.3274-65.9329c7.1811-13.3569,15.0096-35.136,14.3286-65.934
              c-0.4222-19.0038-5.5896-34.9408-9.7421-47.7459c-7.5106-23.1633-10.3202-31.8303,8.5704-52.1935
              C111.9916,68.8675,133.3939,61.22,161.613,61.22c27.1032,0,51.1823,7.16,57.9172,9.3547
              c15.6251,5.0895,54.0537,12.6622,95.8781,12.6633c33.5729,0,80.6982-5.1474,116.5922-29.3402
              c35.8951,24.1928,83.0204,29.3402,116.5911,29.3402c41.8224,0,80.251-7.5733,95.8784-12.6633
              c6.7349-2.1947,30.8171-9.3547,57.918-9.3547c28.2191,0,49.6214,7.6469,63.6109,22.7284
              c18.8906,20.3639,16.0813,29.0308,8.5707,52.1946c-4.1527,12.8057-9.3202,28.7422-9.7412,47.7464
              C764.1464,214.6865,771.9748,236.4656,779.1558,249.823z"/>
          </g>

        </svg>
